<svg xmlns="http://www.w3.org/2000/svg" width="1600" height="1000" viewBox="0 0 1600 1000"><defs><radialGradient id="fade" gradientUnits="userSpaceOnUse" cx="800.0" cy="470.0" r="900"><stop offset="0" stop-color="#000"/><stop offset="0.35" stop-color="#1a1a1a"/><stop offset="0.62" stop-color="#888"/><stop offset="0.9" stop-color="#fff"/></radialGradient><mask id="depthfade"><rect width="1600" height="1000" fill="url(#fade)"/></mask></defs><g mask="url(#depthfade)"><g stroke="#fff" stroke-opacity="0.14" fill="none" stroke-width="1"><rect x="-320.0" y="-230.0" width="2240.0" height="1400.0"/><rect x="-14.5" y="-39.1" width="1629.1" height="1018.2"/><rect x="160.0" y="70.0" width="1280.0" height="800.0"/><rect x="272.9" y="140.6" width="1054.1" height="658.8"/><rect x="352.0" y="190.0" width="896.0" height="560.0"/><rect x="410.4" y="226.5" width="779.1" height="487.0"/><rect x="455.4" y="254.6" width="689.2" height="430.8"/><rect x="491.0" y="276.9" width="617.9" height="386.2"/><rect x="520.0" y="295.0" width="560.0" height="350.0"/></g><g stroke="#fff" stroke-opacity="0.16" stroke-width="1"><line x1="520.0" y1="295.0" x2="-320.0" y2="-230.0"/><line x1="520.0" y1="645.0" x2="-320.0" y2="1170.0"/><line x1="590.0" y1="295.0" x2="-40.0" y2="-230.0"/><line x1="590.0" y1="645.0" x2="-40.0" y2="1170.0"/><line x1="660.0" y1="295.0" x2="240.0" y2="-230.0"/><line x1="660.0" y1="645.0" x2="240.0" y2="1170.0"/><line x1="730.0" y1="295.0" x2="520.0" y2="-230.0"/><line x1="730.0" y1="645.0" x2="520.0" y2="1170.0"/><line x1="800.0" y1="295.0" x2="800.0" y2="-230.0"/><line x1="800.0" y1="645.0" x2="800.0" y2="1170.0"/><line x1="870.0" y1="295.0" x2="1080.0" y2="-230.0"/><line x1="870.0" y1="645.0" x2="1080.0" y2="1170.0"/><line x1="940.0" y1="295.0" x2="1360.0" y2="-230.0"/><line x1="940.0" y1="645.0" x2="1360.0" y2="1170.0"/><line x1="1010.0" y1="295.0" x2="1640.0" y2="-230.0"/><line x1="1010.0" y1="645.0" x2="1640.0" y2="1170.0"/><line x1="1080.0" y1="295.0" x2="1920.0" y2="-230.0"/><line x1="1080.0" y1="645.0" x2="1920.0" y2="1170.0"/><line x1="520.0" y1="295.0" x2="-320.0" y2="-230.0"/><line x1="1080.0" y1="295.0" x2="1920.0" y2="-230.0"/><line x1="520.0" y1="365.0" x2="-320.0" y2="50.0"/><line x1="1080.0" y1="365.0" x2="1920.0" y2="50.0"/><line x1="520.0" y1="435.0" x2="-320.0" y2="330.0"/><line x1="1080.0" y1="435.0" x2="1920.0" y2="330.0"/><line x1="520.0" y1="505.0" x2="-320.0" y2="610.0"/><line x1="1080.0" y1="505.0" x2="1920.0" y2="610.0"/><line x1="520.0" y1="575.0" x2="-320.0" y2="890.0"/><line x1="1080.0" y1="575.0" x2="1920.0" y2="890.0"/><line x1="520.0" y1="645.0" x2="-320.0" y2="1170.0"/><line x1="1080.0" y1="645.0" x2="1920.0" y2="1170.0"/></g><g stroke="#fff" stroke-opacity="0.24" stroke-width="1.2"><line x1="520.0" y1="295.0" x2="-320.0" y2="-230.0"/><line x1="520.0" y1="645.0" x2="-320.0" y2="1170.0"/><line x1="1080.0" y1="295.0" x2="1920.0" y2="-230.0"/><line x1="1080.0" y1="645.0" x2="1920.0" y2="1170.0"/></g><g stroke="#fff" stroke-opacity="0.11" stroke-width="1"><line x1="590.0" y1="295.0" x2="590.0" y2="645.0"/><line x1="660.0" y1="295.0" x2="660.0" y2="645.0"/><line x1="730.0" y1="295.0" x2="730.0" y2="645.0"/><line x1="800.0" y1="295.0" x2="800.0" y2="645.0"/><line x1="870.0" y1="295.0" x2="870.0" y2="645.0"/><line x1="940.0" y1="295.0" x2="940.0" y2="645.0"/><line x1="1010.0" y1="295.0" x2="1010.0" y2="645.0"/><line x1="520.0" y1="365.0" x2="1080.0" y2="365.0"/><line x1="520.0" y1="435.0" x2="1080.0" y2="435.0"/><line x1="520.0" y1="505.0" x2="1080.0" y2="505.0"/><line x1="520.0" y1="575.0" x2="1080.0" y2="575.0"/></g></g><g stroke="#fff" stroke-opacity="0.40" stroke-width="1.6"><path d="M331 760h18M340 751v18"/><path d="M1261 730h18M1270 721v18"/><path d="M551 900h18M560 891v18"/><path d="M1071 920h18M1080 911v18"/><path d="M206 340h18M215 331v18"/><path d="M1391 300h18M1400 291v18"/></g></svg>