<svg width="75" height="45" viewBox="0 0 75 45" fill="none" xmlns="http://www.w3.org/2000/svg">
<path d="M63.924 24.4454C63.4964 23.4897 63.2826 22.4963 63.2826 21.4652V13.7317H59.9629V9.167H63.2826V1.16943H68.3377V9.167H74.0718V13.7317H68.3377V21.3897C68.3377 21.8424 68.4886 22.2322 68.7904 22.5592C69.0922 22.861 69.4569 23.0119 69.8844 23.0119H74.0718V27.5765H69.3563C67.9982 27.5765 66.8539 27.2873 65.9233 26.7088C65.018 26.1304 64.3515 25.3759 63.924 24.4454Z" fill="white"/>
<path d="M52.8023 12.8261C51.9221 12.8261 51.1676 13.0147 50.5388 13.3919C49.9101 13.7692 49.4197 14.247 49.0676 14.8255C48.7155 15.3788 48.4766 15.9572 48.3508 16.5608L57.2538 16.5985C57.128 16.0201 56.8891 15.4416 56.537 14.8632C56.1849 14.2847 55.6945 13.8069 55.0658 13.4297C54.437 13.0273 53.6825 12.8261 52.8023 12.8261ZM48.1999 19.5033C48.2754 20.1572 48.464 20.8111 48.7658 21.465C49.0927 22.1188 49.5831 22.6973 50.237 23.2003C50.9161 23.6781 51.7712 23.917 52.8023 23.917C53.8586 23.917 54.7011 23.6781 55.3298 23.2003C55.9837 22.7224 56.4741 22.1188 56.8011 21.3895H61.7053C61.3029 23.0242 60.4226 24.5458 59.0645 25.9542C57.7065 27.3374 55.6191 28.029 52.8023 28.029C50.6897 28.029 48.9293 27.5637 47.5209 26.6332C46.1377 25.6775 45.1191 24.4703 44.4652 23.0117C43.8113 21.5278 43.4844 19.9811 43.4844 18.3716C43.4844 16.762 43.8113 15.2279 44.4652 13.7692C45.1191 12.2854 46.1377 11.0782 47.5209 10.1476C48.9293 9.19195 50.6897 8.71411 52.8023 8.71411C54.94 8.71411 56.7256 9.20453 58.1592 10.1854C59.6178 11.1662 60.6615 12.4865 61.2903 14.1464C61.9442 15.7811 62.1957 17.5668 62.0448 19.5033H48.1999Z" fill="white"/>
<path d="M35.1617 12.8261C34.2814 12.8261 33.527 13.0147 32.8982 13.3919C32.2695 13.7692 31.7791 14.247 31.427 14.8255C31.0749 15.3788 30.8359 15.9572 30.7102 16.5608L39.6132 16.5985C39.4874 16.0201 39.2485 15.4416 38.8964 14.8632C38.5443 14.2847 38.0539 13.8069 37.4251 13.4297C36.7964 13.0273 36.0419 12.8261 35.1617 12.8261ZM30.5593 19.5033C30.6347 20.1572 30.8234 20.8111 31.1252 21.465C31.4521 22.1188 31.9425 22.6973 32.5964 23.2003C33.2755 23.6781 34.1305 23.917 35.1617 23.917C36.218 23.917 37.0605 23.6781 37.6892 23.2003C38.3431 22.7224 38.8335 22.1188 39.1605 21.3895H44.0646C43.6622 23.0242 42.782 24.5458 41.4239 25.9542C40.0658 27.3374 37.9784 28.029 35.1617 28.029C33.0491 28.029 31.2886 27.5637 29.8803 26.6332C28.497 25.6775 27.4785 24.4703 26.8246 23.0117C26.1707 21.5278 25.8438 19.9811 25.8438 18.3716C25.8438 16.762 26.1707 15.2279 26.8246 13.7692C27.4785 12.2854 28.497 11.0782 29.8803 10.1476C31.2886 9.19195 33.0491 8.71411 35.1617 8.71411C37.2994 8.71411 39.085 9.20453 40.5185 10.1854C41.9772 11.1662 43.0209 12.4865 43.6497 14.1464C44.3036 15.7811 44.555 17.5668 44.4041 19.5033H30.5593Z" fill="white"/>
<path d="M25.7261 9.61972C26.0279 9.92151 26.1788 10.2988 26.1788 10.7514V32.5184C26.1788 33.449 25.9776 34.3292 25.5752 35.1591C25.1728 36.0142 24.5566 36.7058 23.7267 37.234C22.8968 37.7873 21.8908 38.0639 20.7087 38.0639H15.6914V33.4993H19.5393C19.992 33.4993 20.3692 33.3358 20.671 33.0088C20.9728 32.707 21.1237 32.3298 21.1237 31.8771V14.5993C21.1237 14.3478 21.0357 14.1466 20.8596 13.9957C20.7087 13.8197 20.5076 13.7317 20.2561 13.7317H18.3698V9.16702H24.6321C25.0596 9.16702 25.4243 9.31792 25.7261 9.61972ZM21.4255 4.18741C21.9285 4.66525 22.5321 4.90417 23.2363 4.90417C23.8902 4.90417 24.456 4.66525 24.9339 4.18741C25.4369 3.68441 25.6884 3.10597 25.6884 2.45209C25.6884 1.77305 25.4369 1.19461 24.9339 0.716763C24.456 0.238921 23.8902 0 23.2363 0C22.5321 0 21.9285 0.238921 21.4255 0.716763C20.9225 1.19461 20.671 1.77305 20.671 2.45209C20.671 3.13112 20.9225 3.70956 21.4255 4.18741Z" fill="white"/>
<path d="M13.3544 18.1829C13.1532 18.3087 12.7634 18.4344 12.185 18.5602C11.6065 18.6608 10.8646 18.7865 9.95924 18.9374C9.20475 19.038 8.41254 19.1512 7.5826 19.2769C6.87841 19.3775 6.2371 19.6542 5.65866 20.1069C5.10537 20.5596 4.82872 21.1254 4.82872 21.8045C4.82872 22.4332 5.05507 22.9614 5.50776 23.3889C5.9856 23.7913 6.56404 24.0554 7.24308 24.1811C7.97242 24.2566 8.58858 24.2566 9.09158 24.1811C9.59457 24.1057 10.1856 23.9045 10.8646 23.5775C11.5437 23.2254 12.097 22.7727 12.5245 22.2194C12.952 21.641 13.2035 21.0626 13.279 20.4841C13.3293 20.0817 13.3544 19.6668 13.3544 19.2392V18.1829ZM20.8616 27.614H17.24C16.4353 27.614 15.8317 27.3877 15.4293 26.935C15.0269 26.4823 14.8257 25.8787 14.8257 25.1242C14.8257 24.5961 14.8886 24.0931 15.0143 23.6152C15.1401 23.1123 15.3035 22.6847 15.5047 22.3326H14.8257C14.549 23.1123 14.1341 23.8919 13.5808 24.6715C13.0526 25.426 12.4239 26.0422 11.6946 26.52C10.6886 27.1739 9.61972 27.614 8.48799 27.8404C7.35626 28.0667 6.1868 28.1044 4.97962 27.9535C4.12453 27.8529 3.30717 27.5763 2.52753 27.1236C1.77305 26.6709 1.15688 26.0548 0.679039 25.2751C0.226346 24.4955 0 23.6152 0 22.6344C0 21.1254 0.402393 19.956 1.20718 19.126C2.03712 18.2961 3.10597 17.7302 4.41375 17.4284C5.04249 17.2775 5.69638 17.1644 6.37542 17.0889C7.05446 16.9883 7.69577 16.9003 8.29936 16.8249C9.1796 16.7494 9.92151 16.6614 10.5251 16.5608L11.0155 16.4853C11.8455 16.3344 12.4365 16.1584 12.7886 15.9572C13.1407 15.7308 13.2413 15.341 13.0904 14.7877C12.9898 14.3853 12.7508 14.0458 12.3736 13.7692C12.0215 13.4674 11.5814 13.241 11.0532 13.0901C10.5251 12.9141 9.92151 12.8261 9.24247 12.8261C8.33709 12.8261 7.57003 12.9644 6.94129 13.241C6.31255 13.5177 5.8347 13.8824 5.50776 14.335C5.20596 14.7626 5.05507 15.2279 5.05507 15.7308H0.150898C0.150898 14.5488 0.477842 13.4297 1.13173 12.3734C1.81077 11.2919 2.82933 10.4117 4.18741 9.73267C5.57063 9.05363 7.28081 8.71411 9.31792 8.71411C11.3299 8.71411 13.0149 9.05363 14.373 9.73267C15.7562 10.4117 16.7748 11.2919 17.4287 12.3734C18.0826 13.4548 18.4095 14.6117 18.4095 15.844V22.144C18.4095 22.3955 18.4975 22.6093 18.6736 22.7853C18.8496 22.9362 19.0634 23.0117 19.3149 23.0117H20.8616V27.614Z" fill="white"/>
<path d="M72.769 33.5687C72.9618 34.079 73.0582 34.5724 73.0582 35.0487V39.7949H70.7787V35.1678C70.7787 34.612 70.6312 34.1414 70.3364 33.7558C70.0528 33.3702 69.6105 33.1604 69.0095 33.1264C68.5445 33.1037 68.1589 33.1831 67.8527 33.3645C67.5465 33.5347 67.3197 33.7728 67.1722 34.079C67.0362 34.3852 66.9511 34.7311 66.9171 35.1167C66.8944 35.8085 66.883 36.506 66.883 37.2091V39.7949H64.6035V31.4933H66.883V31.7314C66.883 31.9696 66.8377 32.2475 66.747 32.565C66.6562 32.8825 66.5428 33.1831 66.4067 33.4666H66.7129C66.883 32.8542 67.1722 32.3722 67.5805 32.0206C67.9888 31.6691 68.4481 31.4479 68.9584 31.3572C69.4688 31.2551 69.9564 31.2608 70.4214 31.3742C71.0112 31.5216 71.5045 31.7995 71.9014 32.2078C72.2984 32.6047 72.5875 33.0583 72.769 33.5687Z" fill="white"/>
<path d="M59.2455 38.8764C58.4743 38.8764 57.7825 38.7233 57.1701 38.4171C56.5577 38.0995 56.0814 37.6516 55.7411 37.0732C55.4009 36.4948 55.2308 35.837 55.2308 35.0999C55.2308 34.34 55.3896 33.6766 55.7071 33.1095C56.0247 32.5311 56.467 32.0832 57.034 31.7656C57.6124 31.4481 58.2702 31.2893 59.0073 31.2893C59.5517 31.2893 60.045 31.4027 60.4873 31.6295C60.9296 31.845 61.2812 32.1342 61.542 32.4971C61.8029 32.8487 61.9617 33.2229 62.0184 33.6199C62.0524 33.7219 62.1091 33.8127 62.1885 33.8921C62.2792 33.9714 62.4096 34.0735 62.5797 34.1983C62.8066 34.3797 62.971 34.5328 63.0731 34.6576C63.1865 34.7823 63.2432 34.9298 63.2432 35.0999C63.2432 35.8484 63.0731 36.5118 62.7328 37.0902C62.4039 37.6573 61.9333 38.0995 61.3209 38.4171C60.7198 38.7233 60.028 38.8764 59.2455 38.8764ZM59.2455 37.0051C59.6538 37.0051 60.0167 36.9258 60.3342 36.767C60.6631 36.5969 60.9183 36.3701 61.0997 36.0865C61.2812 35.803 61.3719 35.4741 61.3719 35.0999C61.3719 34.7256 61.2812 34.3911 61.0997 34.0962C60.9183 33.8013 60.6631 33.5745 60.3342 33.4157C60.0167 33.2456 59.6538 33.1606 59.2455 33.1606C58.8259 33.1606 58.4516 33.2456 58.1227 33.4157C57.8052 33.5745 57.5557 33.8013 57.3742 34.0962C57.1928 34.3911 57.1021 34.7256 57.1021 35.0999C57.1021 35.4741 57.1928 35.803 57.3742 36.0865C57.5557 36.3701 57.8052 36.5969 58.1227 36.767C58.4516 36.9258 58.8259 37.0051 59.2455 37.0051ZM59.4156 43.0782C59.9033 43.0782 60.3399 43.0385 60.7255 42.9591C61.1224 42.8798 61.4286 42.7664 61.6441 42.6189C61.8709 42.4828 61.9843 42.3184 61.9843 42.1256C61.9843 41.9328 61.8709 41.7627 61.6441 41.6152C61.4173 41.4792 61.1054 41.3714 60.7085 41.292C60.3229 41.2126 59.8919 41.1729 59.4156 41.1729C58.9166 41.1729 58.4686 41.2126 58.0717 41.292C57.6861 41.3714 57.3856 41.4792 57.1701 41.6152C56.9546 41.7627 56.8469 41.9328 56.8469 42.1256C56.8469 42.3184 56.9546 42.4828 57.1701 42.6189C57.3856 42.7664 57.6861 42.8798 58.0717 42.9591C58.4686 43.0385 58.9166 43.0782 59.4156 43.0782ZM56.4386 40.3224C56.053 40.3224 55.7525 40.226 55.537 40.0332C55.3329 39.8517 55.2308 39.5966 55.2308 39.2677C55.2308 38.9615 55.3329 38.7233 55.537 38.5532C55.7525 38.3717 56.053 38.281 56.4386 38.281H56.5577V37.9578L59.2455 38.5362L59.2285 38.8764H57.4083C57.2608 38.8764 57.1417 38.9048 57.051 38.9615C56.9716 39.0068 56.9319 39.0862 56.9319 39.1996C56.9319 39.313 56.9716 39.3981 57.051 39.4548C57.1417 39.5002 57.2608 39.5228 57.4083 39.5228H59.4156C60.3002 39.5228 61.0941 39.6362 61.7972 39.8631C62.5003 40.0899 63.0504 40.4018 63.4473 40.7987C63.8556 41.1956 64.0597 41.6379 64.0597 42.1256C64.0597 42.6132 63.8556 43.0555 63.4473 43.4525C63.0504 43.8494 62.5003 44.1613 61.7972 44.3881C61.0941 44.6149 60.3059 44.7283 59.4326 44.7283C58.5367 44.7283 57.7315 44.6319 57.017 44.4391C56.3139 44.2463 55.7638 43.9742 55.3669 43.6226C54.97 43.271 54.7715 42.8798 54.7715 42.4488C54.7715 42.0632 54.8906 41.7343 55.1287 41.4621C55.3669 41.2013 55.6504 41.0028 55.9793 40.8667C56.3195 40.742 56.6598 40.6626 57 40.6286H57.034V40.3224H56.4386ZM62.3246 33.6199C62.1318 33.0982 62.0354 32.6219 62.0354 32.1909C62.0354 31.9981 62.1034 31.8337 62.2395 31.6976C62.3756 31.5615 62.54 31.4934 62.7328 31.4934H64.6041V33.5518H63.6174C63.5154 33.5518 63.4246 33.5915 63.3452 33.6709C63.2772 33.739 63.2432 33.824 63.2432 33.9261V35.0999L61.7802 34.8107L62.0184 33.6199H62.3246Z" fill="white"/>
<path d="M54.5681 31.6975C54.7042 31.8336 54.7722 31.9981 54.7722 32.1909V39.795H52.4927V33.943C52.4927 33.8296 52.453 33.7389 52.3736 33.6709C52.3056 33.5915 52.2149 33.5518 52.1015 33.5518H51.3359V31.4934H54.0748C54.2676 31.4934 54.432 31.5614 54.5681 31.6975ZM52.7479 29.2479C52.9747 29.4634 53.2469 29.5711 53.5644 29.5711C53.8593 29.5711 54.1145 29.4634 54.3299 29.2479C54.5568 29.0211 54.6702 28.7602 54.6702 28.4654C54.6702 28.1592 54.5568 27.8983 54.3299 27.6828C54.1145 27.4674 53.8593 27.3596 53.5644 27.3596C53.2469 27.3596 52.9747 27.4674 52.7479 27.6828C52.5211 27.8983 52.4077 28.1592 52.4077 28.4654C52.4077 28.7716 52.5211 29.0324 52.7479 29.2479Z" fill="white"/>
<path d="M50.7908 35.5932C51.1537 35.9448 51.3351 36.4551 51.3351 37.1242C51.3351 37.6232 51.1991 38.0939 50.9269 38.5362C50.6547 38.9671 50.2294 39.3187 49.651 39.5909C49.084 39.8631 48.3865 39.9992 47.5586 39.9992C46.7194 39.9992 46.0162 39.8631 45.4492 39.5909C44.8821 39.3187 44.4569 38.9671 44.1733 38.5362C43.8898 38.0939 43.748 37.6232 43.748 37.1242H45.8234C45.8234 37.4531 45.9709 37.7083 46.2657 37.8897C46.5719 38.0599 47.0029 38.1449 47.5586 38.1449C47.8308 38.1449 48.0803 38.1109 48.3071 38.0428C48.5453 37.9748 48.7381 37.8727 48.8855 37.7366C49.0329 37.5892 49.1066 37.4078 49.1066 37.1923C49.1066 36.9768 49.0273 36.8067 48.8685 36.6819C48.7097 36.5572 48.5056 36.4721 48.2561 36.4268C48.0066 36.3814 47.6663 36.336 47.2354 36.2907C46.5549 36.2226 45.9879 36.1376 45.5342 36.0355C45.0806 35.9221 44.6893 35.7009 44.3605 35.372C44.0429 35.0432 43.8841 34.5725 43.8841 33.9601C43.8841 33.4838 44.0146 33.0472 44.2754 32.6502C44.5476 32.2419 44.9559 31.9131 45.5002 31.6636C46.0559 31.4141 46.7364 31.2893 47.5416 31.2893C48.3355 31.2893 49.0046 31.4141 49.5489 31.6636C50.0933 31.9131 50.5016 32.2419 50.7738 32.6502C51.046 33.0472 51.182 33.4838 51.182 33.9601V34.0962H49.1066V33.9601C49.1066 33.6993 48.9649 33.5008 48.6814 33.3647C48.3978 33.2173 48.0236 33.1436 47.5586 33.1436C47.1617 33.1436 46.8214 33.2173 46.5379 33.3647C46.2657 33.5008 46.1296 33.6879 46.1296 33.9261C46.1296 34.0849 46.192 34.2096 46.3168 34.3003C46.4529 34.3797 46.64 34.4421 46.8782 34.4875C47.1277 34.5215 47.4112 34.5555 47.7287 34.5895C48.4432 34.6689 49.0386 34.771 49.5149 34.8957C50.0026 35.0091 50.4279 35.2416 50.7908 35.5932Z" fill="white"/>
<path d="M39.5612 33.1436C39.1643 33.1436 38.824 33.2286 38.5405 33.3987C38.257 33.5688 38.0358 33.7843 37.8771 34.0452C37.7183 34.2947 37.6106 34.5555 37.5538 34.8277L41.5685 34.8447C41.5118 34.5839 41.4041 34.323 41.2453 34.0622C41.0866 33.8013 40.8654 33.5858 40.5819 33.4157C40.2984 33.2343 39.9581 33.1436 39.5612 33.1436ZM37.4858 36.1546C37.5198 36.4494 37.6049 36.7443 37.741 37.0392C37.8884 37.334 38.1096 37.5949 38.4044 37.8217C38.7106 38.0372 39.0962 38.1449 39.5612 38.1449C40.0375 38.1449 40.4174 38.0372 40.701 37.8217C40.9958 37.6062 41.217 37.334 41.3644 37.0051H43.5759C43.3944 37.7423 42.9975 38.4284 42.3851 39.0635C41.7727 39.6873 40.8314 39.9992 39.5612 39.9992C38.6086 39.9992 37.8147 39.7894 37.1796 39.3697C36.5558 38.9388 36.0965 38.3944 35.8017 37.7366C35.5068 37.0675 35.3594 36.3701 35.3594 35.6442C35.3594 34.9184 35.5068 34.2266 35.8017 33.5688C36.0965 32.8997 36.5558 32.3554 37.1796 31.9357C37.8147 31.5048 38.6086 31.2893 39.5612 31.2893C40.5252 31.2893 41.3304 31.5105 41.9768 31.9528C42.6346 32.395 43.1052 32.9904 43.3888 33.739C43.6836 34.4761 43.797 35.2813 43.729 36.1546H37.4858Z" fill="white"/>
<path d="M28.758 35.6442C28.758 36.336 28.9622 36.8917 29.3705 37.3113C29.7787 37.7309 30.2947 37.9407 30.9185 37.9407C31.5423 37.9407 32.0583 37.7309 32.4665 37.3113C32.8748 36.8917 33.079 36.336 33.079 35.6442C33.079 34.9524 32.8748 34.3967 32.4665 33.9771C32.0583 33.5574 31.5423 33.3476 30.9185 33.3476C30.3061 33.3476 29.7901 33.5574 29.3705 33.9771C28.9622 34.3967 28.758 34.9524 28.758 35.6442ZM26.4785 35.6442C26.4785 34.9184 26.6089 34.2209 26.8698 33.5518C27.142 32.8827 27.5616 32.3383 28.1286 31.9187C28.6957 31.4991 29.3988 31.2892 30.238 31.2892C30.9979 31.2892 31.5933 31.448 32.0242 31.7656C32.4552 32.0718 32.8068 32.4574 33.079 32.9223H33.3852C33.181 32.2986 33.079 31.6238 33.079 30.898V27.887H35.3585V39.795H33.079V39.7099C33.079 39.4944 33.1073 39.2733 33.164 39.0465C33.2321 38.8083 33.3058 38.5872 33.3852 38.383H33.079C33.0449 38.4284 33.0109 38.4851 32.9769 38.5531C32.716 38.9727 32.3645 39.3186 31.9222 39.5908C31.4912 39.863 30.9072 39.9991 30.17 39.9991C29.3534 39.9991 28.6673 39.7893 28.1116 39.3697C27.5559 38.9387 27.142 38.3944 26.8698 37.7366C26.6089 37.0675 26.4785 36.37 26.4785 35.6442Z" fill="white"/>
</svg>
